<svg xmlns="http://www.w3.org/2000/svg" viewBox="0 0 16 16" width="22" height="22">
  <rect x="1" y="3" width="2" height="2" fill="#FF4D8B"/>
  <rect x="3" y="1" width="4" height="2" fill="#FF4D8B"/>
  <rect x="9" y="1" width="4" height="2" fill="#FF4D8B"/>
  <rect x="7" y="1" width="2" height="2" fill="#FF4D8B"/>
  <rect x="13" y="3" width="2" height="2" fill="#FF4D8B"/>
  <rect x="1" y="3" width="14" height="4" fill="#FF4D8B"/>
  <rect x="2" y="7" width="12" height="3" fill="#FF4D8B"/>
  <rect x="3" y="10" width="10" height="2" fill="#FF4D8B"/>
  <rect x="4" y="12" width="8" height="2" fill="#FF4D8B"/>
  <rect x="5" y="14" width="6" height="1" fill="#FF4D8B"/>
  <rect x="6" y="15" width="4" height="1" fill="#FF4D8B"/>
  <rect x="7" y="16" width="2" height="1" fill="#FF4D8B"/>
  <rect x="3" y="3" width="2" height="2" fill="#FF80B0"/>
  <rect x="9" y="3" width="2" height="2" fill="#FF80B0"/>
  <rect x="2" y="5" width="3" height="2" fill="#FF80B0"/>
</svg>